# xmcd
#
# Track frame offsets:
#         150
#       23850
#       49222
#       67867
#       87547
#      136170
#      172792
#      196560
#      220357
#      237442
#      260760
#      300735
#      310762
#      324097
#
# Disc length:   4606 seconds
#
# Revision: 0
# Processed by: cddbd v1.5.2PL0 Copyright (c) Steve Scherf et al.
# Submitted via: Aqualung 0.229.3
#
DISCID=b811fc0e
DTITLE=Magyar Atom Blues Brothers - Jimi Hendrix emlékkoncert
DYEAR=1994
DGENRE=blues
TTITLE0=Wild Thing
TTITLE1=Purple Haze
TTITLE2=Wait Until Tomorrow
TTITLE3=Manic Depression
TTITLE4=Red House
TTITLE5=Who Knows
TTITLE6=Foxy Lady
TTITLE7=Tobacco Road
TTITLE8=Highway Chile
TTITLE9=Little Wing
TTITLE10=Medley
TTITLE11=Mercedes Benz
TTITLE12=Fire
TTITLE13=Come On
EXTD=
EXTT0=
EXTT1=
EXTT2=
EXTT3=
EXTT4=
EXTT5=
EXTT6=
EXTT7=
EXTT8=
EXTT9=
EXTT10=
EXTT11=
EXTT12=
EXTT13=
PLAYORDER=
